<svg width="24" height="23" viewBox="0 0 24 23" fill="none" xmlns="http://www.w3.org/2000/svg">
<path d="M19.5517 0.325195L4.18755 0.325195C2.25905 0.325195 0.695694 1.88855 0.695694 3.81705L0.695694 19.1812C0.695694 21.1097 2.25905 22.673 4.18754 22.673L19.5517 22.673C21.4802 22.673 23.0435 21.1097 23.0435 19.1812L23.0435 3.81705C23.0435 1.88855 21.4802 0.325195 19.5517 0.325195Z" fill="white"/>
<path d="M11.8696 6.75019C13.406 6.75019 13.6155 6.75019 14.2441 6.75019C14.8028 6.75019 15.0821 6.88987 15.2916 6.9597C15.571 7.09938 15.7805 7.16922 15.99 7.37873C16.1995 7.58824 16.3392 7.79775 16.409 8.0771C16.4789 8.28661 16.5487 8.56596 16.6185 9.12465C16.6185 9.75319 16.6185 9.89286 16.6185 11.4991C16.6185 13.1054 16.6185 13.245 16.6185 13.8736C16.6185 14.4323 16.4789 14.7116 16.409 14.9211C16.2693 15.2005 16.1995 15.41 15.99 15.6195C15.7805 15.829 15.571 15.9687 15.2916 16.0385C15.0821 16.1084 14.8028 16.1782 14.2441 16.248C13.6155 16.248 13.4759 16.248 11.8696 16.248C10.2634 16.248 10.1237 16.248 9.49515 16.248C8.93645 16.248 8.65711 16.1084 8.44759 16.0385C8.16825 15.8988 7.95874 15.829 7.74922 15.6195C7.53971 15.41 7.40004 15.2005 7.3302 14.9211C7.26036 14.7116 7.19053 14.4323 7.12069 13.8736C7.12069 13.245 7.12069 13.1054 7.12069 11.4991C7.12069 9.89286 7.12069 9.75319 7.12069 9.12465C7.12069 8.56596 7.26036 8.28661 7.3302 8.0771C7.46988 7.79775 7.53971 7.58824 7.74922 7.37873C7.95874 7.16922 8.16825 7.02954 8.44759 6.9597C8.65711 6.88987 8.93645 6.82003 9.49515 6.75019C10.1237 6.75019 10.3332 6.75019 11.8696 6.75019ZM11.8696 5.70264C10.2634 5.70264 10.1237 5.70264 9.49515 5.70264C8.86662 5.70264 8.44759 5.84231 8.09841 5.98199C7.74922 6.12166 7.40004 6.33117 7.05085 6.68036C6.70167 7.02954 6.56199 7.30889 6.35248 7.72791C6.21281 8.0771 6.14297 8.49612 6.07314 9.12465C6.07314 9.75319 6.07314 9.9627 6.07314 11.4991C6.07314 13.1054 6.07314 13.245 6.07314 13.8736C6.07314 14.5021 6.21281 14.9211 6.35248 15.2703C6.49216 15.6195 6.70167 15.9687 7.05085 16.3179C7.40004 16.6671 7.67939 16.8067 8.09841 17.0162C8.44759 17.1559 8.86662 17.2257 9.49515 17.2956C10.1237 17.2956 10.3332 17.2956 11.8696 17.2956C13.406 17.2956 13.6155 17.2956 14.2441 17.2956C14.8726 17.2956 15.2916 17.1559 15.6408 17.0162C15.99 16.8766 16.3392 16.6671 16.6884 16.3179C17.0375 15.9687 17.1772 15.6893 17.3867 15.2703C17.5264 14.9211 17.5962 14.5021 17.6661 13.8736C17.6661 13.245 17.6661 13.0355 17.6661 11.4991C17.6661 9.9627 17.6661 9.75319 17.6661 9.12465C17.6661 8.49612 17.5264 8.0771 17.3867 7.72791C17.2471 7.37873 17.0375 7.02954 16.6884 6.68036C16.3392 6.33117 16.0598 6.1915 15.6408 5.98199C15.2916 5.84231 14.8726 5.77247 14.2441 5.70264C13.6155 5.70264 13.4759 5.70264 11.8696 5.70264Z" fill="#0E0E0E"/>
<path d="M11.8696 8.49612C10.1935 8.49612 8.86662 9.82302 8.86662 11.4991C8.86662 13.1752 10.1935 14.5021 11.8696 14.5021C13.5457 14.5021 14.8726 13.1752 14.8726 11.4991C14.8726 9.82302 13.5457 8.49612 11.8696 8.49612ZM11.8696 13.4545C10.8221 13.4545 9.91417 12.6165 9.91417 11.4991C9.91417 10.4516 10.7522 9.54367 11.8696 9.54367C12.9172 9.54367 13.825 10.3817 13.825 11.4991C13.825 12.5467 12.9172 13.4545 11.8696 13.4545Z" fill="#0E0E0E"/>
<path d="M14.9424 9.12465C15.3281 9.12465 15.6408 8.81198 15.6408 8.42628C15.6408 8.04058 15.3281 7.72791 14.9424 7.72791C14.5567 7.72791 14.2441 8.04058 14.2441 8.42628C14.2441 8.81198 14.5567 9.12465 14.9424 9.12465Z" fill="#0E0E0E"/>
</svg>
